<?xml version="1.0" encoding="utf-8" standalone="no"?>
<!DOCTYPE svg PUBLIC "-//W3C//DTD SVG 1.1//EN"
  "http://www.w3.org/Graphics/SVG/1.1/DTD/svg11.dtd">
<!-- Created with matplotlib (https://matplotlib.org/) -->
<svg height="288pt" version="1.1" viewBox="0 0 432 288" width="432pt" xmlns="http://www.w3.org/2000/svg" xmlns:xlink="http://www.w3.org/1999/xlink">
 <metadata>
  <rdf:RDF xmlns:cc="http://creativecommons.org/ns#" xmlns:dc="http://purl.org/dc/elements/1.1/" xmlns:rdf="http://www.w3.org/1999/02/22-rdf-syntax-ns#">
   <cc:Work>
    <dc:type rdf:resource="http://purl.org/dc/dcmitype/StillImage"/>
    <dc:date>2020-12-25T23:00:27.266718</dc:date>
    <dc:format>image/svg+xml</dc:format>
    <dc:creator>
     <cc:Agent>
      <dc:title>Matplotlib v3.3.2, https://matplotlib.org/</dc:title>
     </cc:Agent>
    </dc:creator>
   </cc:Work>
  </rdf:RDF>
 </metadata>
 <defs>
  <style type="text/css">*{stroke-linecap:butt;stroke-linejoin:round;}</style>
 </defs>
 <g id="figure_1">
  <g id="patch_1">
   <path d="M 0 288 
L 432 288 
L 432 0 
L 0 0 
z
" style="fill:#ffffff;"/>
  </g>
  <g id="axes_1">
   <g id="patch_2">
    <path d="M 54 252 
L 388.8 252 
L 388.8 34.56 
L 54 34.56 
z
" style="fill:#ffffff;"/>
   </g>
   <g id="PathCollection_1">
    <path clip-path="url(#p772af44b00)" d="M 100.153585 96.769252 
C 101.348422 96.769252 102.494482 96.294538 103.339359 95.449661 
C 104.184237 94.604784 104.65895 93.458724 104.65895 92.263887 
C 104.65895 91.06905 104.184237 89.92299 103.339359 89.078113 
C 102.494482 88.233236 101.348422 87.758522 100.153585 87.758522 
C 98.958749 87.758522 97.812689 88.233236 96.967811 89.078113 
C 96.122934 89.92299 95.648221 91.06905 95.648221 92.263887 
C 95.648221 93.458724 96.122934 94.604784 96.967811 95.449661 
C 97.812689 96.294538 98.958749 96.769252 100.153585 96.769252 
z
" style="fill:#3d4e8a;stroke:#3d4e8a;"/>
    <path clip-path="url(#p772af44b00)" d="M 328.695903 146.127682 
C 329.533388 146.127682 330.336684 145.794946 330.928875 145.202755 
C 331.521065 144.610564 331.853802 143.807269 331.853802 142.969784 
C 331.853802 142.1323 331.521065 141.329004 330.928875 140.736813 
C 330.336684 140.144622 329.533388 139.811886 328.695903 139.811886 
C 327.858419 139.811886 327.055123 140.144622 326.462932 140.736813 
C 325.870741 141.329004 325.538005 142.1323 325.538005 142.969784 
C 325.538005 143.807269 325.870741 144.610564 326.462932 145.202755 
C 327.055123 145.794946 327.858419 146.127682 328.695903 146.127682 
z
" style="fill:#297b8e;stroke:#297b8e;"/>
    <path clip-path="url(#p772af44b00)" d="M 77.787056 120.353779 
C 79.121039 120.353779 80.400565 119.823782 81.343833 118.880514 
C 82.287101 117.937246 82.817098 116.65772 82.817098 115.323738 
C 82.817098 113.989755 82.287101 112.710229 81.343833 111.766961 
C 80.400565 110.823693 79.121039 110.293696 77.787056 110.293696 
C 76.453074 110.293696 75.173548 110.823693 74.23028 111.766961 
C 73.287012 112.710229 72.757015 113.989755 72.757015 115.323738 
C 72.757015 116.65772 73.287012 117.937246 74.23028 118.880514 
C 75.173548 119.823782 76.453074 120.353779 77.787056 120.353779 
z
" style="fill:#58c765;stroke:#58c765;"/>
    <path clip-path="url(#p772af44b00)" d="M 277.449764 110.08173 
C 278.458949 110.08173 279.426936 109.680777 280.140537 108.967175 
C 280.854138 108.253574 281.255092 107.285587 281.255092 106.276403 
C 281.255092 105.267218 280.854138 104.299231 280.140537 103.58563 
C 279.426936 102.872029 278.458949 102.471075 277.449764 102.471075 
C 276.44058 102.471075 275.472593 102.872029 274.758992 103.58563 
C 274.04539 104.299231 273.644437 105.267218 273.644437 106.276403 
C 273.644437 107.285587 274.04539 108.253574 274.758992 108.967175 
C 275.472593 109.680777 276.44058 110.08173 277.449764 110.08173 
z
" style="fill:#fde725;stroke:#fde725;"/>
    <path clip-path="url(#p772af44b00)" d="M 193.359321 229.053658 
C 194.599294 229.053658 195.788649 228.561011 196.665443 227.684218 
C 197.542236 226.807424 198.034883 225.61807 198.034883 224.378096 
C 198.034883 223.138122 197.542236 221.948768 196.665443 221.071974 
C 195.788649 220.195181 194.599294 219.702534 193.359321 219.702534 
C 192.119347 219.702534 190.929993 220.195181 190.053199 221.071974 
C 189.176406 221.948768 188.683759 223.138122 188.683759 224.378096 
C 188.683759 225.61807 189.176406 226.807424 190.053199 227.684218 
C 190.929993 228.561011 192.119347 229.053658 193.359321 229.053658 
z
" style="fill:#9dd93b;stroke:#9dd93b;"/>
    <path clip-path="url(#p772af44b00)" d="M 353.256783 121.247148 
C 354.548382 121.247148 355.787255 120.73399 356.700553 119.820692 
C 357.613852 118.907393 358.12701 117.668521 358.12701 116.376921 
C 358.12701 115.085322 357.613852 113.846449 356.700553 112.933151 
C 355.787255 112.019852 354.548382 111.506694 353.256783 111.506694 
C 351.965183 111.506694 350.726311 112.019852 349.813012 112.933151 
C 348.899713 113.846449 348.386556 115.085322 348.386556 116.376921 
C 348.386556 117.668521 348.899713 118.907393 349.813012 119.820692 
C 350.726311 120.73399 351.965183 121.247148 353.256783 121.247148 
z
" style="fill:#7cd250;stroke:#7cd250;"/>
    <path clip-path="url(#p772af44b00)" d="M 191.307915 51.484705 
C 193.175229 51.484705 194.966313 50.742814 196.286703 49.422424 
C 197.607093 48.102034 198.348984 46.31095 198.348984 44.443636 
C 198.348984 42.576323 197.607093 40.785239 196.286703 39.464849 
C 194.966313 38.144459 193.175229 37.402567 191.307915 37.402567 
C 189.440602 37.402567 187.649518 38.144459 186.329128 39.464849 
C 185.008738 40.785239 184.266847 42.576323 184.266847 44.443636 
C 184.266847 46.31095 185.008738 48.102034 186.329128 49.422424 
C 187.649518 50.742814 189.440602 51.484705 191.307915 51.484705 
z
" style="fill:#440154;stroke:#440154;"/>
    <path clip-path="url(#p772af44b00)" d="M 316.945447 236.032609 
C 318.675366 236.032609 320.334665 235.345305 321.557903 234.122067 
C 322.781141 232.89883 323.468445 231.23953 323.468445 229.509611 
C 323.468445 227.779691 322.781141 226.120392 321.557903 224.897154 
C 320.334665 223.673917 318.675366 222.986612 316.945447 222.986612 
C 315.215527 222.986612 313.556228 223.673917 312.33299 224.897154 
C 311.109752 226.120392 310.422448 227.779691 310.422448 229.509611 
C 310.422448 231.23953 311.109752 232.89883 312.33299 234.122067 
C 313.556228 235.345305 315.215527 236.032609 316.945447 236.032609 
z
" style="fill:#63cb5f;stroke:#63cb5f;"/>
    <path clip-path="url(#p772af44b00)" d="M 373.581818 76.895742 
C 375.216013 76.895742 376.783496 76.246469 377.939046 75.090919 
C 379.094597 73.935368 379.743869 72.367886 379.743869 70.733691 
C 379.743869 69.099496 379.094597 67.532013 377.939046 66.376463 
C 376.783496 65.220912 375.216013 64.57164 373.581818 64.57164 
C 371.947623 64.57164 370.380141 65.220912 369.22459 66.376463 
C 368.06904 67.532013 367.419767 69.099496 367.419767 70.733691 
C 367.419767 72.367886 368.06904 73.935368 369.22459 75.090919 
C 370.380141 76.246469 371.947623 76.895742 373.581818 76.895742 
z
" style="fill:#20a386;stroke:#20a386;"/>
    <path clip-path="url(#p772af44b00)" d="M 203.271004 182.738765 
C 204.58181 182.738765 205.839106 182.217976 206.765986 181.291096 
C 207.692866 180.364216 208.213655 179.106921 208.213655 177.796114 
C 208.213655 176.485308 207.692866 175.228012 206.765986 174.301132 
C 205.839106 173.374252 204.58181 172.853463 203.271004 172.853463 
C 201.960198 172.853463 200.702902 173.374252 199.776022 174.301132 
C 198.849142 175.228012 198.328353 176.485308 198.328353 177.796114 
C 198.328353 179.106921 198.849142 180.364216 199.776022 181.291096 
C 200.702902 182.217976 201.960198 182.738765 203.271004 182.738765 
z
" style="fill:#f4e61e;stroke:#f4e61e;"/>
    <path clip-path="url(#p772af44b00)" d="M 76.790592 158.614012 
C 77.479906 158.614012 78.14108 158.340145 78.628498 157.852726 
C 79.115917 157.365308 79.389784 156.704134 79.389784 156.01482 
C 79.389784 155.325506 79.115917 154.664332 78.628498 154.176913 
C 78.14108 153.689495 77.479906 153.415628 76.790592 153.415628 
C 76.101278 153.415628 75.440104 153.689495 74.952685 154.176913 
C 74.465267 154.664332 74.1914 155.325506 74.1914 156.01482 
C 74.1914 156.704134 74.465267 157.365308 74.952685 157.852726 
C 75.440104 158.340145 76.101278 158.614012 76.790592 158.614012 
z
" style="fill:#eae51a;stroke:#eae51a;"/>
    <path clip-path="url(#p772af44b00)" d="M 370.523447 242.835608 
C 370.714193 242.835608 370.897152 242.759824 371.032029 242.624946 
C 371.166907 242.490068 371.242691 242.307109 371.242691 242.116364 
C 371.242691 241.925618 371.166907 241.742659 371.032029 241.607781 
C 370.897152 241.472904 370.714193 241.397119 370.523447 241.397119 
C 370.332701 241.397119 370.149742 241.472904 370.014865 241.607781 
C 369.879987 241.742659 369.804203 241.925618 369.804203 242.116364 
C 369.804203 242.307109 369.879987 242.490068 370.014865 242.624946 
C 370.149742 242.759824 370.332701 242.835608 370.523447 242.835608 
z
" style="fill:#fde725;stroke:#fde725;"/>
    <path clip-path="url(#p772af44b00)" d="M 109.792045 119.771443 
C 111.540803 119.771443 113.218171 119.076655 114.454729 117.840097 
C 115.691287 116.603538 116.386076 114.92617 116.386076 113.177413 
C 116.386076 111.428655 115.691287 109.751287 114.454729 108.514729 
C 113.218171 107.278171 111.540803 106.583382 109.792045 106.583382 
C 108.043288 106.583382 106.36592 107.278171 105.129361 108.514729 
C 103.892803 109.751287 103.198015 111.428655 103.198015 113.177413 
C 103.198015 114.92617 103.892803 116.603538 105.129361 117.840097 
C 106.36592 119.076655 108.043288 119.771443 109.792045 119.771443 
z
" style="fill:#4ac16d;stroke:#4ac16d;"/>
    <path clip-path="url(#p772af44b00)" d="M 154.318427 57.631914 
C 155.798155 57.631914 157.217477 57.044011 158.263803 55.997685 
C 159.310129 54.951359 159.898032 53.532037 159.898032 52.052309 
C 159.898032 50.572581 159.310129 49.153259 158.263803 48.106933 
C 157.217477 47.060607 155.798155 46.472704 154.318427 46.472704 
C 152.838698 46.472704 151.419377 47.060607 150.373051 48.106933 
C 149.326725 49.153259 148.738822 50.572581 148.738822 52.052309 
C 148.738822 53.532037 149.326725 54.951359 150.373051 55.997685 
C 151.419377 57.044011 152.838698 57.631914 154.318427 57.631914 
z
" style="fill:#33638d;stroke:#33638d;"/>
    <path clip-path="url(#p772af44b00)" d="M 108.88616 149.442095 
C 110.478747 149.442095 112.00632 148.809353 113.13245 147.683224 
C 114.258579 146.557094 114.891321 145.029521 114.891321 143.436934 
C 114.891321 141.844346 114.258579 140.316773 113.13245 139.190644 
C 112.00632 138.064514 110.478747 137.431773 108.88616 137.431773 
C 107.293572 137.431773 105.765999 138.064514 104.63987 139.190644 
C 103.51374 140.316773 102.880999 141.844346 102.880999 143.436934 
C 102.880999 145.029521 103.51374 146.557094 104.63987 147.683224 
C 105.765999 148.809353 107.293572 149.442095 108.88616 149.442095 
z
" style="fill:#31b57b;stroke:#31b57b;"/>
    <path clip-path="url(#p772af44b00)" d="M 157.594526 159.775863 
C 159.015399 159.775863 160.378268 159.211345 161.382976 158.206636 
C 162.387685 157.201927 162.952204 155.839058 162.952204 154.418186 
C 162.952204 152.997313 162.387685 151.634444 161.382976 150.629735 
C 160.378268 149.625026 159.015399 149.060508 157.594526 149.060508 
C 156.173653 149.060508 154.810784 149.625026 153.806076 150.629735 
C 152.801367 151.634444 152.236848 152.997313 152.236848 154.418186 
C 152.236848 155.839058 152.801367 157.201927 153.806076 158.206636 
C 154.810784 159.211345 156.173653 159.775863 157.594526 159.775863 
z
" style="fill:#c0df25;stroke:#c0df25;"/>
    <path clip-path="url(#p772af44b00)" d="M 69.218182 212.366066 
C 70.498844 212.366066 71.727226 211.857254 72.632791 210.951689 
C 73.538355 210.046124 74.047168 208.817742 74.047168 207.53708 
C 74.047168 206.256418 73.538355 205.028036 72.632791 204.122472 
C 71.727226 203.216907 70.498844 202.708094 69.218182 202.708094 
C 67.93752 202.708094 66.709138 203.216907 65.803573 204.122472 
C 64.898008 205.028036 64.389196 206.256418 64.389196 207.53708 
C 64.389196 208.817742 64.898008 210.046124 65.803573 210.951689 
C 66.709138 211.857254 67.93752 212.366066 69.218182 212.366066 
z
" style="fill:#481c6e;stroke:#481c6e;"/>
    <path clip-path="url(#p772af44b00)" d="M 186.857214 66.956585 
C 188.383309 66.956585 189.847105 66.350261 190.926218 65.271148 
C 192.00533 64.192036 192.611654 62.72824 192.611654 61.202144 
C 192.611654 59.676049 192.00533 58.212253 190.926218 57.133141 
C 189.847105 56.054028 188.383309 55.447704 186.857214 55.447704 
C 185.331118 55.447704 183.867322 56.054028 182.78821 57.133141 
C 181.709097 58.212253 181.102773 59.676049 181.102773 61.202144 
C 181.102773 62.72824 181.709097 64.192036 182.78821 65.271148 
C 183.867322 66.350261 185.331118 66.956585 186.857214 66.956585 
z
" style="fill:#2e6d8e;stroke:#2e6d8e;"/>
    <path clip-path="url(#p772af44b00)" d="M 217.388111 132.069176 
C 218.098311 132.069176 218.779518 131.787011 219.281705 131.284824 
C 219.783891 130.782637 220.066057 130.10143 220.066057 129.391231 
C 220.066057 128.681032 219.783891 127.999824 219.281705 127.497638 
C 218.779518 126.995451 218.098311 126.713286 217.388111 126.713286 
C 216.677912 126.713286 215.996705 126.995451 215.494518 127.497638 
C 214.992331 127.999824 214.710166 128.681032 214.710166 129.391231 
C 214.710166 130.10143 214.992331 130.782637 215.494518 131.284824 
C 215.996705 131.787011 216.677912 132.069176 217.388111 132.069176 
z
" style="fill:#34608d;stroke:#34608d;"/>
    <path clip-path="url(#p772af44b00)" d="M 87.489083 96.011688 
C 88.89805 96.011688 90.249498 95.4519 91.245788 94.455611 
C 92.242078 93.459321 92.801866 92.107872 92.801866 90.698906 
C 92.801866 89.28994 92.242078 87.938491 91.245788 86.942201 
C 90.249498 85.945912 88.89805 85.386123 87.489083 85.386123 
C 86.080117 85.386123 84.728669 85.945912 83.732379 86.942201 
C 82.736089 87.938491 82.176301 89.28994 82.176301 90.698906 
C 82.176301 92.107872 82.736089 93.459321 83.732379 94.455611 
C 84.728669 95.4519 86.080117 96.011688 87.489083 96.011688 
z
" style="fill:#2b758e;stroke:#2b758e;"/>
   </g>
   <g id="matplotlib.axis_1">
    <g id="xtick_1">
     <g id="line2d_1">
      <defs>
       <path d="M 0 0 
L 0 3.5 
" id="mbcc432ebb3" style="stroke:#000000;stroke-width:0.8;"/>
      </defs>
      <g>
       <use style="stroke:#000000;stroke-width:0.8;" x="62.620187" xlink:href="#mbcc432ebb3" y="252"/>
      </g>
     </g>
     <g id="text_1">
      <!-- 0.0 -->
      <g transform="translate(54.668625 266.598437)scale(0.1 -0.1)">
       <defs>
        <path d="M 31.78125 66.40625 
Q 24.171875 66.40625 20.328125 58.90625 
Q 16.5 51.421875 16.5 36.375 
Q 16.5 21.390625 20.328125 13.890625 
Q 24.171875 6.390625 31.78125 6.390625 
Q 39.453125 6.390625 43.28125 13.890625 
Q 47.125 21.390625 47.125 36.375 
Q 47.125 51.421875 43.28125 58.90625 
Q 39.453125 66.40625 31.78125 66.40625 
z
M 31.78125 74.21875 
Q 44.046875 74.21875 50.515625 64.515625 
Q 56.984375 54.828125 56.984375 36.375 
Q 56.984375 17.96875 50.515625 8.265625 
Q 44.046875 -1.421875 31.78125 -1.421875 
Q 19.53125 -1.421875 13.0625 8.265625 
Q 6.59375 17.96875 6.59375 36.375 
Q 6.59375 54.828125 13.0625 64.515625 
Q 19.53125 74.21875 31.78125 74.21875 
z
" id="DejaVuSans-48"/>
        <path d="M 10.6875 12.40625 
L 21 12.40625 
L 21 0 
L 10.6875 0 
z
" id="DejaVuSans-46"/>
       </defs>
       <use xlink:href="#DejaVuSans-48"/>
       <use x="63.623047" xlink:href="#DejaVuSans-46"/>
       <use x="95.410156" xlink:href="#DejaVuSans-48"/>
      </g>
     </g>
    </g>
    <g id="xtick_2">
     <g id="line2d_2">
      <g>
       <use style="stroke:#000000;stroke-width:0.8;" x="127.980603" xlink:href="#mbcc432ebb3" y="252"/>
      </g>
     </g>
     <g id="text_2">
      <!-- 0.2 -->
      <g transform="translate(120.02904 266.598437)scale(0.1 -0.1)">
       <defs>
        <path d="M 19.1875 8.296875 
L 53.609375 8.296875 
L 53.609375 0 
L 7.328125 0 
L 7.328125 8.296875 
Q 12.9375 14.109375 22.625 23.890625 
Q 32.328125 33.6875 34.8125 36.53125 
Q 39.546875 41.84375 41.421875 45.53125 
Q 43.3125 49.21875 43.3125 52.78125 
Q 43.3125 58.59375 39.234375 62.25 
Q 35.15625 65.921875 28.609375 65.921875 
Q 23.96875 65.921875 18.8125 64.3125 
Q 13.671875 62.703125 7.8125 59.421875 
L 7.8125 69.390625 
Q 13.765625 71.78125 18.9375 73 
Q 24.125 74.21875 28.421875 74.21875 
Q 39.75 74.21875 46.484375 68.546875 
Q 53.21875 62.890625 53.21875 53.421875 
Q 53.21875 48.921875 51.53125 44.890625 
Q 49.859375 40.875 45.40625 35.40625 
Q 44.1875 33.984375 37.640625 27.21875 
Q 31.109375 20.453125 19.1875 8.296875 
z
" id="DejaVuSans-50"/>
       </defs>
       <use xlink:href="#DejaVuSans-48"/>
       <use x="63.623047" xlink:href="#DejaVuSans-46"/>
       <use x="95.410156" xlink:href="#DejaVuSans-50"/>
      </g>
     </g>
    </g>
    <g id="xtick_3">
     <g id="line2d_3">
      <g>
       <use style="stroke:#000000;stroke-width:0.8;" x="193.341018" xlink:href="#mbcc432ebb3" y="252"/>
      </g>
     </g>
     <g id="text_3">
      <!-- 0.4 -->
      <g transform="translate(185.389456 266.598437)scale(0.1 -0.1)">
       <defs>
        <path d="M 37.796875 64.3125 
L 12.890625 25.390625 
L 37.796875 25.390625 
z
M 35.203125 72.90625 
L 47.609375 72.90625 
L 47.609375 25.390625 
L 58.015625 25.390625 
L 58.015625 17.1875 
L 47.609375 17.1875 
L 47.609375 0 
L 37.796875 0 
L 37.796875 17.1875 
L 4.890625 17.1875 
L 4.890625 26.703125 
z
" id="DejaVuSans-52"/>
       </defs>
       <use xlink:href="#DejaVuSans-48"/>
       <use x="63.623047" xlink:href="#DejaVuSans-46"/>
       <use x="95.410156" xlink:href="#DejaVuSans-52"/>
      </g>
     </g>
    </g>
    <g id="xtick_4">
     <g id="line2d_4">
      <g>
       <use style="stroke:#000000;stroke-width:0.8;" x="258.701433" xlink:href="#mbcc432ebb3" y="252"/>
      </g>
     </g>
     <g id="text_4">
      <!-- 0.6 -->
      <g transform="translate(250.749871 266.598437)scale(0.1 -0.1)">
       <defs>
        <path d="M 33.015625 40.375 
Q 26.375 40.375 22.484375 35.828125 
Q 18.609375 31.296875 18.609375 23.390625 
Q 18.609375 15.53125 22.484375 10.953125 
Q 26.375 6.390625 33.015625 6.390625 
Q 39.65625 6.390625 43.53125 10.953125 
Q 47.40625 15.53125 47.40625 23.390625 
Q 47.40625 31.296875 43.53125 35.828125 
Q 39.65625 40.375 33.015625 40.375 
z
M 52.59375 71.296875 
L 52.59375 62.3125 
Q 48.875 64.0625 45.09375 64.984375 
Q 41.3125 65.921875 37.59375 65.921875 
Q 27.828125 65.921875 22.671875 59.328125 
Q 17.53125 52.734375 16.796875 39.40625 
Q 19.671875 43.65625 24.015625 45.921875 
Q 28.375 48.1875 33.59375 48.1875 
Q 44.578125 48.1875 50.953125 41.515625 
Q 57.328125 34.859375 57.328125 23.390625 
Q 57.328125 12.15625 50.6875 5.359375 
Q 44.046875 -1.421875 33.015625 -1.421875 
Q 20.359375 -1.421875 13.671875 8.265625 
Q 6.984375 17.96875 6.984375 36.375 
Q 6.984375 53.65625 15.1875 63.9375 
Q 23.390625 74.21875 37.203125 74.21875 
Q 40.921875 74.21875 44.703125 73.484375 
Q 48.484375 72.75 52.59375 71.296875 
z
" id="DejaVuSans-54"/>
       </defs>
       <use xlink:href="#DejaVuSans-48"/>
       <use x="63.623047" xlink:href="#DejaVuSans-46"/>
       <use x="95.410156" xlink:href="#DejaVuSans-54"/>
      </g>
     </g>
    </g>
    <g id="xtick_5">
     <g id="line2d_5">
      <g>
       <use style="stroke:#000000;stroke-width:0.8;" x="324.061849" xlink:href="#mbcc432ebb3" y="252"/>
      </g>
     </g>
     <g id="text_5">
      <!-- 0.8 -->
      <g transform="translate(316.110286 266.598437)scale(0.1 -0.1)">
       <defs>
        <path d="M 31.78125 34.625 
Q 24.75 34.625 20.71875 30.859375 
Q 16.703125 27.09375 16.703125 20.515625 
Q 16.703125 13.921875 20.71875 10.15625 
Q 24.75 6.390625 31.78125 6.390625 
Q 38.8125 6.390625 42.859375 10.171875 
Q 46.921875 13.96875 46.921875 20.515625 
Q 46.921875 27.09375 42.890625 30.859375 
Q 38.875 34.625 31.78125 34.625 
z
M 21.921875 38.8125 
Q 15.578125 40.375 12.03125 44.71875 
Q 8.5 49.078125 8.5 55.328125 
Q 8.5 64.0625 14.71875 69.140625 
Q 20.953125 74.21875 31.78125 74.21875 
Q 42.671875 74.21875 48.875 69.140625 
Q 55.078125 64.0625 55.078125 55.328125 
Q 55.078125 49.078125 51.53125 44.71875 
Q 48 40.375 41.703125 38.8125 
Q 48.828125 37.15625 52.796875 32.3125 
Q 56.78125 27.484375 56.78125 20.515625 
Q 56.78125 9.90625 50.3125 4.234375 
Q 43.84375 -1.421875 31.78125 -1.421875 
Q 19.734375 -1.421875 13.25 4.234375 
Q 6.78125 9.90625 6.78125 20.515625 
Q 6.78125 27.484375 10.78125 32.3125 
Q 14.796875 37.15625 21.921875 38.8125 
z
M 18.3125 54.390625 
Q 18.3125 48.734375 21.84375 45.5625 
Q 25.390625 42.390625 31.78125 42.390625 
Q 38.140625 42.390625 41.71875 45.5625 
Q 45.3125 48.734375 45.3125 54.390625 
Q 45.3125 60.0625 41.71875 63.234375 
Q 38.140625 66.40625 31.78125 66.40625 
Q 25.390625 66.40625 21.84375 63.234375 
Q 18.3125 60.0625 18.3125 54.390625 
z
" id="DejaVuSans-56"/>
       </defs>
       <use xlink:href="#DejaVuSans-48"/>
       <use x="63.623047" xlink:href="#DejaVuSans-46"/>
       <use x="95.410156" xlink:href="#DejaVuSans-56"/>
      </g>
     </g>
    </g>
   </g>
   <g id="matplotlib.axis_2">
    <g id="ytick_1">
     <g id="line2d_6">
      <defs>
       <path d="M 0 0 
L -3.5 0 
" id="m52939d0372" style="stroke:#000000;stroke-width:0.8;"/>
      </defs>
      <g>
       <use style="stroke:#000000;stroke-width:0.8;" x="54" xlink:href="#m52939d0372" y="214.045354"/>
      </g>
     </g>
     <g id="text_6">
      <!-- 0.2 -->
      <g transform="translate(31.096875 217.844573)scale(0.1 -0.1)">
       <use xlink:href="#DejaVuSans-48"/>
       <use x="63.623047" xlink:href="#DejaVuSans-46"/>
       <use x="95.410156" xlink:href="#DejaVuSans-50"/>
      </g>
     </g>
    </g>
    <g id="ytick_2">
     <g id="line2d_7">
      <g>
       <use style="stroke:#000000;stroke-width:0.8;" x="54" xlink:href="#m52939d0372" y="171.366143"/>
      </g>
     </g>
     <g id="text_7">
      <!-- 0.4 -->
      <g transform="translate(31.096875 175.165362)scale(0.1 -0.1)">
       <use xlink:href="#DejaVuSans-48"/>
       <use x="63.623047" xlink:href="#DejaVuSans-46"/>
       <use x="95.410156" xlink:href="#DejaVuSans-52"/>
      </g>
     </g>
    </g>
    <g id="ytick_3">
     <g id="line2d_8">
      <g>
       <use style="stroke:#000000;stroke-width:0.8;" x="54" xlink:href="#m52939d0372" y="128.686932"/>
      </g>
     </g>
     <g id="text_8">
      <!-- 0.6 -->
      <g transform="translate(31.096875 132.48615)scale(0.1 -0.1)">
       <use xlink:href="#DejaVuSans-48"/>
       <use x="63.623047" xlink:href="#DejaVuSans-46"/>
       <use x="95.410156" xlink:href="#DejaVuSans-54"/>
      </g>
     </g>
    </g>
    <g id="ytick_4">
     <g id="line2d_9">
      <g>
       <use style="stroke:#000000;stroke-width:0.8;" x="54" xlink:href="#m52939d0372" y="86.007721"/>
      </g>
     </g>
     <g id="text_9">
      <!-- 0.8 -->
      <g transform="translate(31.096875 89.806939)scale(0.1 -0.1)">
       <use xlink:href="#DejaVuSans-48"/>
       <use x="63.623047" xlink:href="#DejaVuSans-46"/>
       <use x="95.410156" xlink:href="#DejaVuSans-56"/>
      </g>
     </g>
    </g>
    <g id="ytick_5">
     <g id="line2d_10">
      <g>
       <use style="stroke:#000000;stroke-width:0.8;" x="54" xlink:href="#m52939d0372" y="43.328509"/>
      </g>
     </g>
     <g id="text_10">
      <!-- 1.0 -->
      <g transform="translate(31.096875 47.127728)scale(0.1 -0.1)">
       <defs>
        <path d="M 12.40625 8.296875 
L 28.515625 8.296875 
L 28.515625 63.921875 
L 10.984375 60.40625 
L 10.984375 69.390625 
L 28.421875 72.90625 
L 38.28125 72.90625 
L 38.28125 8.296875 
L 54.390625 8.296875 
L 54.390625 0 
L 12.40625 0 
z
" id="DejaVuSans-49"/>
       </defs>
       <use xlink:href="#DejaVuSans-49"/>
       <use x="63.623047" xlink:href="#DejaVuSans-46"/>
       <use x="95.410156" xlink:href="#DejaVuSans-48"/>
      </g>
     </g>
    </g>
   </g>
   <g id="patch_3">
    <path d="M 54 252 
L 54 34.56 
" style="fill:none;stroke:#000000;stroke-linecap:square;stroke-linejoin:miter;stroke-width:0.8;"/>
   </g>
   <g id="patch_4">
    <path d="M 388.8 252 
L 388.8 34.56 
" style="fill:none;stroke:#000000;stroke-linecap:square;stroke-linejoin:miter;stroke-width:0.8;"/>
   </g>
   <g id="patch_5">
    <path d="M 54 252 
L 388.8 252 
" style="fill:none;stroke:#000000;stroke-linecap:square;stroke-linejoin:miter;stroke-width:0.8;"/>
   </g>
   <g id="patch_6">
    <path d="M 54 34.56 
L 388.8 34.56 
" style="fill:none;stroke:#000000;stroke-linecap:square;stroke-linejoin:miter;stroke-width:0.8;"/>
   </g>
  </g>
 </g>
 <defs>
  <clipPath id="p772af44b00">
   <rect height="217.44" width="334.8" x="54" y="34.56"/>
  </clipPath>
 </defs>
</svg>
